# MagicaVoxel @ Ephtracy

# group
o 

# material
mtllib Skill-log.vox-6.mtl
usemtl palette

# normals
vn -1 0 0
vn 1 0 0
vn 0 0 1
vn 0 0 -1
vn 0 -1 0
vn 0 1 0

# texcoords
vt 0.908203 0.5
vt 0.978516 0.5

# verts
v 3.7 0 -2.1
v 3.7 0 -3.7
v 3.7 1.6 -2.1
v 3.7 1.6 -3.7
v 3.9 0 -2.1
v 3.9 0 -3.7
v 3.9 0.2 -2.7
v 3.9 0.2 -2.9
v 3.9 0.2 -3.2
v 3.9 0.2 -3.4
v 3.9 0.3 -2.6
v 3.9 0.3 -2.7
v 3.9 0.3 -2.9
v 3.9 0.3 -3
v 3.9 0.3 -3.1
v 3.9 0.3 -3.2
v 3.9 0.3 -3.4
v 3.9 0.3 -3.5
v 3.9 0.4 -2.6
v 3.9 0.4 -2.7
v 3.9 0.4 -3.1
v 3.9 0.4 -3.2
v 3.9 0.4 -3.3
v 3.9 0.4 -3.4
v 3.9 0.4 -3.5
v 3.9 0.5 -3.2
v 3.9 0.5 -3.3
v 3.9 0.5 -3.4
v 3.9 0.6 -3.1
v 3.9 0.6 -3.2
v 3.9 0.6 -3.3
v 3.9 0.6 -3.4
v 3.9 0.6 -3.5
v 3.9 0.7 -3.1
v 3.9 0.7 -3.2
v 3.9 0.7 -3.4
v 3.9 0.7 -3.5
v 3.9 0.8 -2.9
v 3.9 0.8 -3
v 3.9 0.8 -3.2
v 3.9 0.8 -3.4
v 3.9 1.6 -2.1
v 3.9 1.6 -3.7
v 4 0.2 -2.7
v 4 0.2 -2.9
v 4 0.2 -3.2
v 4 0.2 -3.4
v 4 0.3 -2.6
v 4 0.3 -2.7
v 4 0.3 -2.9
v 4 0.3 -3
v 4 0.3 -3.1
v 4 0.3 -3.2
v 4 0.3 -3.4
v 4 0.3 -3.5
v 4 0.4 -2.6
v 4 0.4 -2.7
v 4 0.4 -3.1
v 4 0.4 -3.2
v 4 0.4 -3.3
v 4 0.4 -3.4
v 4 0.4 -3.5
v 4 0.5 -3.2
v 4 0.5 -3.3
v 4 0.5 -3.4
v 4 0.6 -3.1
v 4 0.6 -3.2
v 4 0.6 -3.3
v 4 0.6 -3.4
v 4 0.6 -3.5
v 4 0.7 -3.1
v 4 0.7 -3.2
v 4 0.7 -3.4
v 4 0.7 -3.5
v 4 0.8 -2.9
v 4 0.8 -3
v 4 0.8 -3.2
v 4 0.8 -3.4
v 3.7 0 -2.1
v 3.7 1.6 -2.1
v 3.9 0 -2.1
v 3.9 1.6 -2.1
v 3.9 0.3 -2.6
v 3.9 0.4 -2.6
v 4 0.3 -2.6
v 4 0.4 -2.6
v 3.9 0.2 -2.7
v 3.9 0.3 -2.7
v 4 0.2 -2.7
v 4 0.3 -2.7
v 3.9 0.3 -2.9
v 3.9 0.8 -2.9
v 4 0.3 -2.9
v 4 0.8 -2.9
v 3.9 0.3 -3.1
v 3.9 0.4 -3.1
v 3.9 0.6 -3.1
v 3.9 0.7 -3.1
v 4 0.3 -3.1
v 4 0.4 -3.1
v 4 0.6 -3.1
v 4 0.7 -3.1
v 3.9 0.2 -3.2
v 3.9 0.3 -3.2
v 3.9 0.5 -3.2
v 3.9 0.6 -3.2
v 3.9 0.7 -3.2
v 3.9 0.8 -3.2
v 4 0.2 -3.2
v 4 0.3 -3.2
v 4 0.5 -3.2
v 4 0.6 -3.2
v 4 0.7 -3.2
v 4 0.8 -3.2
v 3.9 0.4 -3.3
v 3.9 0.5 -3.3
v 4 0.4 -3.3
v 4 0.5 -3.3
v 3.9 0.3 -3.4
v 3.9 0.4 -3.4
v 3.9 0.6 -3.4
v 3.9 0.7 -3.4
v 4 0.3 -3.4
v 4 0.4 -3.4
v 4 0.6 -3.4
v 4 0.7 -3.4
v 3.9 0.3 -2.7
v 3.9 0.4 -2.7
v 4 0.3 -2.7
v 4 0.4 -2.7
v 3.9 0.2 -2.9
v 3.9 0.3 -2.9
v 4 0.2 -2.9
v 4 0.3 -2.9
v 3.9 0.3 -3
v 3.9 0.8 -3
v 4 0.3 -3
v 4 0.8 -3
v 3.9 0.3 -3.2
v 3.9 0.4 -3.2
v 3.9 0.6 -3.2
v 3.9 0.7 -3.2
v 4 0.3 -3.2
v 4 0.4 -3.2
v 4 0.6 -3.2
v 4 0.7 -3.2
v 3.9 0.5 -3.3
v 3.9 0.6 -3.3
v 4 0.5 -3.3
v 4 0.6 -3.3
v 3.9 0.2 -3.4
v 3.9 0.3 -3.4
v 3.9 0.4 -3.4
v 3.9 0.5 -3.4
v 3.9 0.7 -3.4
v 3.9 0.8 -3.4
v 4 0.2 -3.4
v 4 0.3 -3.4
v 4 0.4 -3.4
v 4 0.5 -3.4
v 4 0.7 -3.4
v 4 0.8 -3.4
v 3.9 0.3 -3.5
v 3.9 0.4 -3.5
v 3.9 0.6 -3.5
v 3.9 0.7 -3.5
v 4 0.3 -3.5
v 4 0.4 -3.5
v 4 0.6 -3.5
v 4 0.7 -3.5
v 3.7 0 -3.7
v 3.7 1.6 -3.7
v 3.9 0 -3.7
v 3.9 1.6 -3.7
v 3.7 0 -2.1
v 3.9 0 -2.1
v 3.7 0 -3.7
v 3.9 0 -3.7
v 3.9 0.2 -2.7
v 4 0.2 -2.7
v 3.9 0.2 -2.9
v 4 0.2 -2.9
v 3.9 0.2 -3.2
v 4 0.2 -3.2
v 3.9 0.2 -3.4
v 4 0.2 -3.4
v 3.9 0.3 -2.6
v 4 0.3 -2.6
v 3.9 0.3 -2.7
v 4 0.3 -2.7
v 3.9 0.3 -2.9
v 4 0.3 -2.9
v 3.9 0.3 -3
v 4 0.3 -3
v 3.9 0.3 -3.1
v 4 0.3 -3.1
v 3.9 0.3 -3.2
v 4 0.3 -3.2
v 3.9 0.3 -3.4
v 4 0.3 -3.4
v 3.9 0.3 -3.5
v 4 0.3 -3.5
v 3.9 0.4 -3.3
v 4 0.4 -3.3
v 3.9 0.4 -3.4
v 4 0.4 -3.4
v 3.9 0.5 -3.2
v 4 0.5 -3.2
v 3.9 0.5 -3.3
v 4 0.5 -3.3
v 3.9 0.6 -3.1
v 4 0.6 -3.1
v 3.9 0.6 -3.2
v 4 0.6 -3.2
v 3.9 0.6 -3.4
v 4 0.6 -3.4
v 3.9 0.6 -3.5
v 4 0.6 -3.5
v 3.9 0.7 -3.2
v 4 0.7 -3.2
v 3.9 0.7 -3.4
v 4 0.7 -3.4
v 3.9 0.3 -2.7
v 4 0.3 -2.7
v 3.9 0.3 -2.9
v 4 0.3 -2.9
v 3.9 0.3 -3.2
v 4 0.3 -3.2
v 3.9 0.3 -3.4
v 4 0.3 -3.4
v 3.9 0.4 -2.6
v 4 0.4 -2.6
v 3.9 0.4 -2.7
v 4 0.4 -2.7
v 3.9 0.4 -3.1
v 4 0.4 -3.1
v 3.9 0.4 -3.2
v 4 0.4 -3.2
v 3.9 0.4 -3.4
v 4 0.4 -3.4
v 3.9 0.4 -3.5
v 4 0.4 -3.5
v 3.9 0.5 -3.3
v 4 0.5 -3.3
v 3.9 0.5 -3.4
v 4 0.5 -3.4
v 3.9 0.6 -3.2
v 4 0.6 -3.2
v 3.9 0.6 -3.3
v 4 0.6 -3.3
v 3.9 0.7 -3.1
v 4 0.7 -3.1
v 3.9 0.7 -3.2
v 4 0.7 -3.2
v 3.9 0.7 -3.4
v 4 0.7 -3.4
v 3.9 0.7 -3.5
v 4 0.7 -3.5
v 3.9 0.8 -2.9
v 4 0.8 -2.9
v 3.9 0.8 -3
v 4 0.8 -3
v 3.9 0.8 -3.2
v 4 0.8 -3.2
v 3.9 0.8 -3.4
v 4 0.8 -3.4
v 3.7 1.6 -2.1
v 3.9 1.6 -2.1
v 3.7 1.6 -3.7
v 3.9 1.6 -3.7

# faces
f 3/2/1 2/2/1 1/2/1
f 4/2/1 2/2/1 3/2/1
f 5/2/2 6/2/2 7/2/2
f 7/2/2 6/2/2 8/2/2
f 8/2/2 6/2/2 9/2/2
f 9/2/2 6/2/2 10/2/2
f 5/2/2 7/2/2 11/2/2
f 11/2/2 7/2/2 12/2/2
f 8/2/2 9/2/2 13/2/2
f 13/2/2 9/2/2 14/2/2
f 14/2/2 9/2/2 15/2/2
f 15/2/2 9/2/2 16/2/2
f 10/2/2 6/2/2 17/2/2
f 17/2/2 6/2/2 18/2/2
f 5/2/2 11/2/2 19/2/2
f 12/2/2 13/2/2 20/2/2
f 14/2/2 15/2/2 21/2/2
f 16/2/2 17/2/2 22/2/2
f 22/2/2 17/2/2 23/2/2
f 23/2/2 17/2/2 24/2/2
f 18/2/2 6/2/2 25/2/2
f 21/2/2 22/2/2 26/2/2
f 22/2/2 23/2/2 26/2/2
f 26/2/2 23/2/2 27/2/2
f 24/2/2 25/2/2 28/2/2
f 14/2/2 21/2/2 29/2/2
f 21/2/2 26/2/2 29/2/2
f 29/2/2 26/2/2 30/2/2
f 27/2/2 28/2/2 31/2/2
f 28/2/2 25/2/2 32/2/2
f 31/2/2 28/2/2 32/2/2
f 25/2/2 6/2/2 33/2/2
f 32/2/2 25/2/2 33/2/2
f 14/2/2 29/2/2 34/2/2
f 30/2/2 31/2/2 35/2/2
f 31/2/2 32/2/2 35/2/2
f 35/2/2 32/2/2 36/2/2
f 33/2/2 6/2/2 37/2/2
f 19/2/2 20/2/2 38/2/2
f 20/2/2 13/2/2 38/2/2
f 14/2/2 34/2/2 39/2/2
f 34/2/2 35/2/2 39/2/2
f 39/2/2 35/2/2 40/2/2
f 36/2/2 37/2/2 41/2/2
f 39/2/2 40/2/2 42/2/2
f 40/2/2 41/2/2 42/2/2
f 19/2/2 38/2/2 42/2/2
f 5/2/2 19/2/2 42/2/2
f 38/2/2 39/2/2 42/2/2
f 41/2/2 37/2/2 43/2/2
f 42/2/2 41/2/2 43/2/2
f 37/2/2 6/2/2 43/2/2
f 44/1/2 45/1/2 49/1/2
f 49/1/2 45/1/2 50/1/2
f 46/1/2 47/1/2 53/1/2
f 53/1/2 47/1/2 54/1/2
f 48/1/2 49/1/2 56/1/2
f 56/1/2 49/1/2 57/1/2
f 52/1/2 53/1/2 58/1/2
f 58/1/2 53/1/2 59/1/2
f 54/1/2 55/1/2 61/1/2
f 61/1/2 55/1/2 62/1/2
f 60/1/2 61/1/2 64/1/2
f 64/1/2 61/1/2 65/1/2
f 63/1/2 64/1/2 67/1/2
f 67/1/2 64/1/2 68/1/2
f 66/1/2 67/1/2 71/1/2
f 71/1/2 67/1/2 72/1/2
f 69/1/2 70/1/2 73/1/2
f 73/1/2 70/1/2 74/1/2
f 50/1/2 51/1/2 75/1/2
f 75/1/2 51/1/2 76/1/2
f 72/1/2 73/1/2 77/1/2
f 77/1/2 73/1/2 78/1/2
f 81/2/3 80/2/3 79/2/3
f 82/2/3 80/2/3 81/2/3
f 85/1/3 84/1/3 83/1/3
f 86/1/3 84/1/3 85/1/3
f 89/1/3 88/1/3 87/1/3
f 90/1/3 88/1/3 89/1/3
f 93/1/3 92/1/3 91/1/3
f 94/1/3 92/1/3 93/1/3
f 99/1/3 96/1/3 95/1/3
f 100/1/3 96/1/3 99/1/3
f 101/1/3 98/1/3 97/1/3
f 102/1/3 98/1/3 101/1/3
f 109/1/3 104/1/3 103/1/3
f 110/1/3 104/1/3 109/1/3
f 111/1/3 106/1/3 105/1/3
f 112/1/3 106/1/3 111/1/3
f 113/1/3 108/1/3 107/1/3
f 114/1/3 108/1/3 113/1/3
f 117/1/3 116/1/3 115/1/3
f 118/1/3 116/1/3 117/1/3
f 123/1/3 120/1/3 119/1/3
f 124/1/3 120/1/3 123/1/3
f 125/1/3 122/1/3 121/1/3
f 126/1/3 122/1/3 125/1/3
f 127/1/4 128/1/4 129/1/4
f 129/1/4 128/1/4 130/1/4
f 131/1/4 132/1/4 133/1/4
f 133/1/4 132/1/4 134/1/4
f 135/1/4 136/1/4 137/1/4
f 137/1/4 136/1/4 138/1/4
f 139/1/4 140/1/4 143/1/4
f 143/1/4 140/1/4 144/1/4
f 141/1/4 142/1/4 145/1/4
f 145/1/4 142/1/4 146/1/4
f 147/1/4 148/1/4 149/1/4
f 149/1/4 148/1/4 150/1/4
f 151/1/4 152/1/4 157/1/4
f 157/1/4 152/1/4 158/1/4
f 153/1/4 154/1/4 159/1/4
f 159/1/4 154/1/4 160/1/4
f 155/1/4 156/1/4 161/1/4
f 161/1/4 156/1/4 162/1/4
f 163/1/4 164/1/4 167/1/4
f 167/1/4 164/1/4 168/1/4
f 165/1/4 166/1/4 169/1/4
f 169/1/4 166/1/4 170/1/4
f 171/2/4 172/2/4 173/2/4
f 173/2/4 172/2/4 174/2/4
f 177/2/5 176/2/5 175/2/5
f 178/2/5 176/2/5 177/2/5
f 181/1/5 180/1/5 179/1/5
f 182/1/5 180/1/5 181/1/5
f 185/1/5 184/1/5 183/1/5
f 186/1/5 184/1/5 185/1/5
f 189/1/5 188/1/5 187/1/5
f 190/1/5 188/1/5 189/1/5
f 193/1/5 192/1/5 191/1/5
f 194/1/5 192/1/5 193/1/5
f 197/1/5 196/1/5 195/1/5
f 198/1/5 196/1/5 197/1/5
f 201/1/5 200/1/5 199/1/5
f 202/1/5 200/1/5 201/1/5
f 205/1/5 204/1/5 203/1/5
f 206/1/5 204/1/5 205/1/5
f 209/1/5 208/1/5 207/1/5
f 210/1/5 208/1/5 209/1/5
f 213/1/5 212/1/5 211/1/5
f 214/1/5 212/1/5 213/1/5
f 217/1/5 216/1/5 215/1/5
f 218/1/5 216/1/5 217/1/5
f 221/1/5 220/1/5 219/1/5
f 222/1/5 220/1/5 221/1/5
f 223/1/6 224/1/6 225/1/6
f 225/1/6 224/1/6 226/1/6
f 227/1/6 228/1/6 229/1/6
f 229/1/6 228/1/6 230/1/6
f 231/1/6 232/1/6 233/1/6
f 233/1/6 232/1/6 234/1/6
f 235/1/6 236/1/6 237/1/6
f 237/1/6 236/1/6 238/1/6
f 239/1/6 240/1/6 241/1/6
f 241/1/6 240/1/6 242/1/6
f 243/1/6 244/1/6 245/1/6
f 245/1/6 244/1/6 246/1/6
f 247/1/6 248/1/6 249/1/6
f 249/1/6 248/1/6 250/1/6
f 251/1/6 252/1/6 253/1/6
f 253/1/6 252/1/6 254/1/6
f 255/1/6 256/1/6 257/1/6
f 257/1/6 256/1/6 258/1/6
f 259/1/6 260/1/6 261/1/6
f 261/1/6 260/1/6 262/1/6
f 263/1/6 264/1/6 265/1/6
f 265/1/6 264/1/6 266/1/6
f 267/2/6 268/2/6 269/2/6
f 269/2/6 268/2/6 270/2/6
