# MagicaVoxel @ Ephtracy

# group
o 

# material
mtllib Skill-log.vox-7.mtl
usemtl palette

# normals
vn -1 0 0
vn 1 0 0
vn 0 0 1
vn 0 0 -1
vn 0 -1 0
vn 0 1 0

# texcoords
vt 0.876953 0.5
vt 0.908203 0.5
vt 0.943359 0.5
vt 0.974609 0.5

# verts
v 7.2 0.1 -5
v 7.2 0.1 -5.2
v 7.2 0.4 -5.2
v 7.2 0.4 -5.3
v 7.2 1.5 -5.2
v 7.2 1.5 -5.3
v 7.2 1.6 -5
v 7.2 1.6 -5.2
v 7.3 0 -5
v 7.3 0 -5.3
v 7.3 0.1 -5
v 7.3 0.1 -5.2
v 7.3 0.4 -5.2
v 7.3 0.4 -5.3
v 7.7 0.7 -5
v 7.7 0.7 -5.2
v 7.7 0.9 -5
v 7.7 0.9 -5.2
v 7.8 0 -5.3
v 7.8 0 -5.8
v 7.8 0.4 -5.8
v 7.8 0.4 -5.9
v 7.8 1.5 -5.3
v 7.8 1.5 -5.9
v 7.9 0.1 -5.8
v 7.9 0.1 -5.9
v 7.9 0.4 -5.8
v 7.9 0.4 -5.9
v 7.9 1.5 -5.2
v 7.9 1.5 -5.9
v 7.9 1.6 -5.2
v 7.9 1.6 -5.9
v 7.4 0.6 -5
v 7.4 0.6 -5.2
v 7.4 1.2 -5
v 7.4 1.2 -5.2
v 7.6 0.4 -5
v 7.6 0.4 -5.2
v 7.6 0.6 -5
v 7.6 0.6 -5.2
v 7.8 0.4 -5.2
v 7.8 0.4 -5.3
v 7.8 0.7 -5.2
v 7.8 0.7 -5.3
v 7.8 0.9 -5.2
v 7.8 0.9 -5.3
v 7.8 1.2 -5.2
v 7.8 1.2 -5.3
v 7.9 0 -5
v 7.9 0 -5.2
v 7.9 0.1 -5.2
v 7.9 0.2 -5
v 7.9 0.2 -5.2
v 7.9 0.4 -5.3
v 7.9 0.4 -5.5
v 7.9 0.7 -5.3
v 7.9 0.7 -5.5
v 7.9 0.9 -5.3
v 7.9 0.9 -5.5
v 7.9 1.2 -5.3
v 7.9 1.2 -5.5
v 7.9 1.4 -5
v 7.9 1.4 -5.2
v 7.9 1.5 -5.2
v 7.9 1.6 -5
v 7.9 1.6 -5.2
v 8.1 0 -5.2
v 8.1 0 -5.8
v 8.1 0.1 -5.2
v 8.1 0.1 -5.8
v 8.1 0.1 -5.9
v 8.1 0.2 -5
v 8.1 0.2 -5.2
v 8.1 0.2 -5.7
v 8.1 0.4 -5
v 8.1 0.4 -5.5
v 8.1 0.7 -5
v 8.1 0.7 -5.5
v 8.1 0.9 -5
v 8.1 0.9 -5.5
v 8.1 1.2 -5
v 8.1 1.2 -5.5
v 8.1 1.4 -5
v 8.1 1.4 -5.2
v 8.1 1.4 -5.7
v 8.1 1.5 -5.2
v 8.1 1.5 -5.8
v 8.1 1.6 -5.2
v 8.1 1.6 -5.9
v 7.2 0.1 -5
v 7.2 1.6 -5
v 7.3 0 -5
v 7.3 0.1 -5
v 7.4 0.2 -5
v 7.4 0.6 -5
v 7.4 1.2 -5
v 7.4 1.4 -5
v 7.6 0.4 -5
v 7.6 0.6 -5
v 7.7 0.7 -5
v 7.7 0.9 -5
v 7.9 0 -5
v 7.9 0.2 -5
v 7.9 0.4 -5
v 7.9 0.7 -5
v 7.9 0.9 -5
v 7.9 1.2 -5
v 7.9 1.4 -5
v 7.9 1.6 -5
v 8.1 0.2 -5
v 8.1 0.4 -5
v 8.1 0.7 -5
v 8.1 0.9 -5
v 8.1 1.2 -5
v 8.1 1.4 -5
v 7.4 0.6 -5.2
v 7.4 1.2 -5.2
v 7.6 0.4 -5.2
v 7.6 0.6 -5.2
v 7.7 0.7 -5.2
v 7.7 0.9 -5.2
v 7.8 0.4 -5.2
v 7.8 0.7 -5.2
v 7.8 0.9 -5.2
v 7.8 1.2 -5.2
v 7.9 0 -5.2
v 7.9 0.1 -5.2
v 7.9 0.2 -5.2
v 7.9 1.4 -5.2
v 7.9 1.5 -5.2
v 7.9 1.6 -5.2
v 8.1 0 -5.2
v 8.1 0.1 -5.2
v 8.1 0.2 -5.2
v 8.1 1.4 -5.2
v 8.1 1.5 -5.2
v 8.1 1.6 -5.2
v 7.8 0.4 -5.3
v 7.8 0.7 -5.3
v 7.8 0.9 -5.3
v 7.8 1.2 -5.3
v 7.9 0.4 -5.3
v 7.9 0.7 -5.3
v 7.9 0.9 -5.3
v 7.9 1.2 -5.3
v 7.9 0.4 -5.5
v 7.9 0.7 -5.5
v 7.9 0.9 -5.5
v 7.9 1.2 -5.5
v 8.1 0.4 -5.5
v 8.1 0.7 -5.5
v 8.1 0.9 -5.5
v 8.1 1.2 -5.5
v 7.2 0.1 -5.2
v 7.2 0.4 -5.2
v 7.2 1.5 -5.2
v 7.2 1.6 -5.2
v 7.3 0.1 -5.2
v 7.3 0.4 -5.2
v 7.8 1.5 -5.2
v 7.9 1.5 -5.2
v 7.9 1.6 -5.2
v 7.2 0.4 -5.3
v 7.2 1.5 -5.3
v 7.3 0 -5.3
v 7.3 0.4 -5.3
v 7.8 0 -5.3
v 7.8 1.5 -5.3
v 7.8 0 -5.8
v 7.8 0.4 -5.8
v 7.9 0 -5.8
v 7.9 0.1 -5.8
v 7.9 0.4 -5.8
v 8.1 0 -5.8
v 8.1 0.1 -5.8
v 7.8 0.4 -5.9
v 7.8 1.5 -5.9
v 7.9 0.1 -5.9
v 7.9 0.4 -5.9
v 7.9 1.5 -5.9
v 7.9 1.6 -5.9
v 8.1 0.1 -5.9
v 8.1 1.6 -5.9
v 7.3 0 -5
v 7.9 0 -5
v 7.9 0 -5.2
v 8.1 0 -5.2
v 7.3 0 -5.3
v 7.8 0 -5.3
v 7.9 0 -5.3
v 7.8 0 -5.8
v 7.9 0 -5.8
v 8.1 0 -5.8
v 7.2 0.1 -5
v 7.3 0.1 -5
v 7.2 0.1 -5.2
v 7.3 0.1 -5.2
v 7.9 0.1 -5.8
v 8.1 0.1 -5.8
v 7.9 0.1 -5.9
v 8.1 0.1 -5.9
v 7.9 0.2 -5
v 8.1 0.2 -5
v 7.9 0.2 -5.2
v 8.1 0.2 -5.2
v 7.2 0.4 -5.2
v 7.3 0.4 -5.2
v 7.2 0.4 -5.3
v 7.3 0.4 -5.3
v 7.8 0.4 -5.8
v 7.9 0.4 -5.8
v 7.8 0.4 -5.9
v 7.9 0.4 -5.9
v 7.7 0.7 -5
v 7.9 0.7 -5
v 8.1 0.7 -5
v 7.7 0.7 -5.2
v 7.8 0.7 -5.2
v 7.9 0.7 -5.2
v 7.8 0.7 -5.3
v 7.9 0.7 -5.3
v 7.9 0.7 -5.5
v 8.1 0.7 -5.5
v 7.4 1.2 -5
v 7.9 1.2 -5
v 8.1 1.2 -5
v 7.4 1.2 -5.2
v 7.8 1.2 -5.2
v 7.9 1.2 -5.2
v 7.8 1.2 -5.3
v 7.9 1.2 -5.3
v 7.9 1.2 -5.5
v 8.1 1.2 -5.5
v 7.6 0.4 -5
v 7.9 0.4 -5
v 8.1 0.4 -5
v 7.6 0.4 -5.2
v 7.8 0.4 -5.2
v 7.9 0.4 -5.2
v 7.8 0.4 -5.3
v 7.9 0.4 -5.3
v 7.9 0.4 -5.5
v 8.1 0.4 -5.5
v 7.4 0.6 -5
v 7.6 0.6 -5
v 7.4 0.6 -5.2
v 7.6 0.6 -5.2
v 7.7 0.9 -5
v 7.9 0.9 -5
v 8.1 0.9 -5
v 7.7 0.9 -5.2
v 7.8 0.9 -5.2
v 7.9 0.9 -5.2
v 7.8 0.9 -5.3
v 7.9 0.9 -5.3
v 7.9 0.9 -5.5
v 8.1 0.9 -5.5
v 7.9 1.4 -5
v 8.1 1.4 -5
v 7.9 1.4 -5.2
v 8.1 1.4 -5.2
v 7.2 1.5 -5.2
v 7.8 1.5 -5.2
v 7.9 1.5 -5.2
v 7.2 1.5 -5.3
v 7.8 1.5 -5.3
v 7.8 1.5 -5.9
v 7.9 1.5 -5.9
v 7.2 1.6 -5
v 7.9 1.6 -5
v 7.2 1.6 -5.2
v 7.9 1.6 -5.2
v 8.1 1.6 -5.2
v 7.9 1.6 -5.9
v 8.1 1.6 -5.9

# faces
f 3/3/1 2/3/1 1/3/1
f 5/3/1 3/3/1 1/3/1
f 5/3/1 4/3/1 3/3/1
f 6/3/1 4/3/1 5/3/1
f 7/3/1 5/3/1 1/3/1
f 8/3/1 5/3/1 7/3/1
f 11/3/1 10/3/1 9/3/1
f 12/3/1 10/3/1 11/3/1
f 13/3/1 10/3/1 12/3/1
f 14/3/1 10/3/1 13/3/1
f 17/1/1 16/1/1 15/1/1
f 18/1/1 16/1/1 17/1/1
f 21/4/1 20/4/1 19/4/1
f 23/4/1 21/4/1 19/4/1
f 23/4/1 22/4/1 21/4/1
f 24/4/1 22/4/1 23/4/1
f 27/3/1 26/3/1 25/3/1
f 28/3/1 26/3/1 27/3/1
f 31/3/1 30/3/1 29/3/1
f 32/3/1 30/3/1 31/3/1
f 33/3/2 34/3/2 35/3/2
f 35/3/2 34/3/2 36/3/2
f 37/1/2 38/1/2 39/1/2
f 39/1/2 38/1/2 40/1/2
f 41/3/2 42/3/2 43/3/2
f 43/3/2 42/3/2 44/3/2
f 45/3/2 46/3/2 47/3/2
f 47/3/2 46/3/2 48/3/2
f 49/3/2 50/3/2 51/3/2
f 49/3/2 51/3/2 52/3/2
f 52/3/2 51/3/2 53/3/2
f 54/4/2 55/4/2 56/4/2
f 56/4/2 55/4/2 57/4/2
f 58/4/2 59/4/2 60/4/2
f 60/4/2 59/4/2 61/4/2
f 62/3/2 63/3/2 64/3/2
f 62/3/2 64/3/2 65/3/2
f 65/3/2 64/3/2 66/3/2
f 67/3/2 68/3/2 69/3/2
f 69/3/2 68/3/2 70/3/2
f 69/4/2 70/4/2 73/4/2
f 73/4/2 70/4/2 74/4/2
f 72/2/2 73/2/2 75/2/2
f 73/2/2 74/2/2 75/2/2
f 75/2/2 74/2/2 76/2/2
f 76/2/2 74/2/2 78/2/2
f 77/2/2 78/2/2 79/2/2
f 78/2/2 74/2/2 80/2/2
f 79/2/2 78/2/2 80/2/2
f 80/2/2 74/2/2 82/2/2
f 81/2/2 82/2/2 83/2/2
f 83/2/2 82/2/2 84/2/2
f 74/4/2 70/4/2 85/4/2
f 84/2/2 82/2/2 85/2/2
f 82/2/2 74/2/2 85/2/2
f 84/4/2 85/4/2 86/4/2
f 70/3/2 71/3/2 87/3/2
f 86/4/2 85/4/2 87/4/2
f 85/4/2 70/4/2 87/4/2
f 86/3/2 87/3/2 88/3/2
f 87/3/2 71/3/2 89/3/2
f 88/3/2 87/3/2 89/3/2
f 93/3/3 91/3/3 90/3/3
f 94/3/3 91/3/3 93/3/3
f 94/3/3 93/3/3 92/3/3
f 95/3/3 91/3/3 94/3/3
f 96/3/3 91/3/3 95/3/3
f 97/3/3 91/3/3 96/3/3
f 98/1/3 95/1/3 94/1/3
f 99/1/3 95/1/3 98/1/3
f 102/3/3 94/3/3 92/3/3
f 103/1/3 98/1/3 94/1/3
f 103/3/3 94/3/3 102/3/3
f 104/1/3 98/1/3 103/1/3
f 105/1/3 101/1/3 100/1/3
f 106/1/3 101/1/3 105/1/3
f 107/1/3 97/1/3 96/1/3
f 108/3/3 91/3/3 97/3/3
f 108/1/3 97/1/3 107/1/3
f 109/3/3 91/3/3 108/3/3
f 110/2/3 104/2/3 103/2/3
f 111/2/3 104/2/3 110/2/3
f 112/2/3 106/2/3 105/2/3
f 113/2/3 106/2/3 112/2/3
f 114/2/3 108/2/3 107/2/3
f 115/2/3 108/2/3 114/2/3
f 119/3/3 117/3/3 116/3/3
f 120/3/3 117/3/3 119/3/3
f 120/3/3 119/3/3 118/3/3
f 121/3/3 117/3/3 120/3/3
f 122/3/3 120/3/3 118/3/3
f 123/3/3 120/3/3 122/3/3
f 124/3/3 117/3/3 121/3/3
f 125/3/3 117/3/3 124/3/3
f 132/3/3 127/3/3 126/3/3
f 133/4/3 128/4/3 127/4/3
f 133/3/3 127/3/3 132/3/3
f 134/4/3 128/4/3 133/4/3
f 135/4/3 130/4/3 129/4/3
f 136/3/3 131/3/3 130/3/3
f 136/4/3 130/4/3 135/4/3
f 137/3/3 131/3/3 136/3/3
f 142/4/3 139/4/3 138/4/3
f 143/4/3 139/4/3 142/4/3
f 144/4/3 141/4/3 140/4/3
f 145/4/3 141/4/3 144/4/3
f 150/2/3 147/2/3 146/2/3
f 151/2/3 147/2/3 150/2/3
f 152/2/3 149/2/3 148/2/3
f 153/2/3 149/2/3 152/2/3
f 154/3/4 155/3/4 158/3/4
f 158/3/4 155/3/4 159/3/4
f 156/3/4 157/3/4 160/3/4
f 160/3/4 157/3/4 161/3/4
f 161/3/4 157/3/4 162/3/4
f 163/3/4 164/3/4 166/3/4
f 165/3/4 166/3/4 167/3/4
f 166/3/4 164/3/4 168/3/4
f 167/3/4 166/3/4 168/3/4
f 169/4/4 170/4/4 171/4/4
f 171/4/4 170/4/4 172/4/4
f 172/4/4 170/4/4 173/4/4
f 171/3/4 172/3/4 174/3/4
f 174/3/4 172/3/4 175/3/4
f 176/4/4 177/4/4 179/4/4
f 179/4/4 177/4/4 180/4/4
f 178/3/4 179/3/4 182/3/4
f 180/3/4 181/3/4 182/3/4
f 179/3/4 180/3/4 182/3/4
f 182/3/4 181/3/4 183/3/4
f 186/3/5 185/3/5 184/3/5
f 188/3/5 186/3/5 184/3/5
f 188/3/5 187/3/5 186/3/5
f 189/3/5 187/3/5 188/3/5
f 190/3/5 187/3/5 189/3/5
f 191/4/5 190/4/5 189/4/5
f 192/3/5 187/3/5 190/3/5
f 192/4/5 190/4/5 191/4/5
f 193/3/5 187/3/5 192/3/5
f 196/3/5 195/3/5 194/3/5
f 197/3/5 195/3/5 196/3/5
f 200/3/5 199/3/5 198/3/5
f 201/3/5 199/3/5 200/3/5
f 204/2/5 203/2/5 202/2/5
f 205/2/5 203/2/5 204/2/5
f 208/3/5 207/3/5 206/3/5
f 209/3/5 207/3/5 208/3/5
f 212/4/5 211/4/5 210/4/5
f 213/4/5 211/4/5 212/4/5
f 217/1/5 215/1/5 214/1/5
f 218/1/5 215/1/5 217/1/5
f 219/2/5 216/2/5 215/2/5
f 219/1/5 215/1/5 218/1/5
f 220/4/5 219/4/5 218/4/5
f 221/2/5 216/2/5 219/2/5
f 221/4/5 219/4/5 220/4/5
f 222/2/5 216/2/5 221/2/5
f 223/2/5 216/2/5 222/2/5
f 227/1/5 225/1/5 224/1/5
f 228/1/5 225/1/5 227/1/5
f 229/2/5 226/2/5 225/2/5
f 229/1/5 225/1/5 228/1/5
f 230/4/5 229/4/5 228/4/5
f 231/2/5 226/2/5 229/2/5
f 231/4/5 229/4/5 230/4/5
f 232/2/5 226/2/5 231/2/5
f 233/2/5 226/2/5 232/2/5
f 234/1/6 235/1/6 237/1/6
f 237/1/6 235/1/6 238/1/6
f 235/2/6 236/2/6 239/2/6
f 238/1/6 235/1/6 239/1/6
f 238/4/6 239/4/6 240/4/6
f 239/2/6 236/2/6 241/2/6
f 240/4/6 239/4/6 241/4/6
f 241/2/6 236/2/6 242/2/6
f 242/2/6 236/2/6 243/2/6
f 244/1/6 245/1/6 246/1/6
f 246/1/6 245/1/6 247/1/6
f 248/1/6 249/1/6 251/1/6
f 251/1/6 249/1/6 252/1/6
f 249/2/6 250/2/6 253/2/6
f 252/1/6 249/1/6 253/1/6
f 252/4/6 253/4/6 254/4/6
f 253/2/6 250/2/6 255/2/6
f 254/4/6 253/4/6 255/4/6
f 255/2/6 250/2/6 256/2/6
f 256/2/6 250/2/6 257/2/6
f 258/2/6 259/2/6 260/2/6
f 260/2/6 259/2/6 261/2/6
f 262/3/6 263/3/6 265/3/6
f 263/4/6 264/4/6 266/4/6
f 265/3/6 263/3/6 266/3/6
f 266/4/6 264/4/6 267/4/6
f 267/4/6 264/4/6 268/4/6
f 269/3/6 270/3/6 271/3/6
f 271/3/6 270/3/6 272/3/6
f 272/3/6 273/3/6 274/3/6
f 274/3/6 273/3/6 275/3/6
