# MagicaVoxel @ Ephtracy

# group
o 

# material
mtllib Skill-log.vox-8.mtl
usemtl palette

# normals
vn -1 0 0
vn 1 0 0
vn 0 0 1
vn 0 0 -1
vn 0 -1 0
vn 0 1 0

# texcoords
vt 0.818359 0.5
vt 0.876953 0.5
vt 0.908203 0.5
vt 0.939453 0.5
vt 0.970703 0.5

# verts
v 3.6 0.1 -6
v 3.6 0.1 -6.2
v 3.6 0.4 -6.2
v 3.6 0.4 -6.3
v 3.6 1.5 -6.2
v 3.6 1.5 -6.3
v 3.6 1.6 -6
v 3.6 1.6 -6.2
v 3.7 0 -6
v 3.7 0 -6.3
v 3.7 0.1 -6
v 3.7 0.1 -6.2
v 3.7 0.4 -6.2
v 3.7 0.4 -6.3
v 4.2 0 -6.3
v 4.2 0 -6.8
v 4.2 0.4 -6.8
v 4.2 0.4 -6.9
v 4.2 1.5 -6.3
v 4.2 1.5 -6.9
v 4.3 0.1 -6.8
v 4.3 0.1 -6.9
v 4.3 0.4 -6.8
v 4.3 0.4 -6.9
v 4.3 1.5 -6.2
v 4.3 1.5 -6.9
v 4.3 1.6 -6.2
v 4.3 1.6 -6.9
v 3.8 0.6 -6
v 3.8 0.6 -6.2
v 3.8 0.7 -6
v 3.8 0.7 -6.2
v 4 0.4 -6
v 4 0.4 -6.2
v 4 0.6 -6
v 4 0.6 -6.2
v 4 0.9 -6
v 4 0.9 -6.2
v 4 1.2 -6
v 4 1.2 -6.2
v 4.2 0.4 -6.2
v 4.2 0.4 -6.3
v 4.2 0.7 -6.2
v 4.2 0.7 -6.3
v 4.2 0.9 -6.2
v 4.2 0.9 -6.3
v 4.2 1.2 -6.2
v 4.2 1.2 -6.3
v 4.3 0 -6
v 4.3 0 -6.2
v 4.3 0.1 -6.2
v 4.3 0.2 -6
v 4.3 0.2 -6.2
v 4.3 0.4 -6.3
v 4.3 0.4 -6.5
v 4.3 0.7 -6.3
v 4.3 0.7 -6.5
v 4.3 0.9 -6.3
v 4.3 0.9 -6.7
v 4.3 1 -6.3
v 4.3 1 -6.4
v 4.3 1.1 -6.3
v 4.3 1.1 -6.4
v 4.3 1.2 -6.3
v 4.3 1.2 -6.7
v 4.3 1.4 -6
v 4.3 1.4 -6.2
v 4.3 1.5 -6.2
v 4.3 1.6 -6
v 4.3 1.6 -6.2
v 4.4 1 -6.3
v 4.4 1 -6.4
v 4.4 1.1 -6.3
v 4.4 1.1 -6.4
v 4.5 0 -6.2
v 4.5 0 -6.8
v 4.5 0.1 -6.2
v 4.5 0.1 -6.8
v 4.5 0.1 -6.9
v 4.5 0.2 -6
v 4.5 0.2 -6.2
v 4.5 0.2 -6.7
v 4.5 0.4 -6
v 4.5 0.4 -6.5
v 4.5 0.7 -6
v 4.5 0.7 -6.5
v 4.5 0.9 -6
v 4.5 0.9 -6.7
v 4.5 1.2 -6
v 4.5 1.2 -6.7
v 4.5 1.4 -6
v 4.5 1.4 -6.2
v 4.5 1.4 -6.7
v 4.5 1.5 -6.2
v 4.5 1.5 -6.8
v 4.5 1.6 -6.2
v 4.5 1.6 -6.9
v 3.6 0.1 -6
v 3.6 1.6 -6
v 3.7 0 -6
v 3.7 0.1 -6
v 3.8 0.2 -6
v 3.8 0.6 -6
v 3.8 0.7 -6
v 3.8 1.4 -6
v 4 0.4 -6
v 4 0.6 -6
v 4 0.9 -6
v 4 1.2 -6
v 4.3 0 -6
v 4.3 0.2 -6
v 4.3 0.4 -6
v 4.3 0.7 -6
v 4.3 0.9 -6
v 4.3 1.2 -6
v 4.3 1.4 -6
v 4.3 1.6 -6
v 4.5 0.2 -6
v 4.5 0.4 -6
v 4.5 0.7 -6
v 4.5 0.9 -6
v 4.5 1.2 -6
v 4.5 1.4 -6
v 3.8 0.6 -6.2
v 3.8 0.7 -6.2
v 4 0.4 -6.2
v 4 0.6 -6.2
v 4 0.9 -6.2
v 4 1.2 -6.2
v 4.2 0.4 -6.2
v 4.2 0.7 -6.2
v 4.2 0.9 -6.2
v 4.2 1.2 -6.2
v 4.3 0 -6.2
v 4.3 0.1 -6.2
v 4.3 0.2 -6.2
v 4.3 1.4 -6.2
v 4.3 1.5 -6.2
v 4.3 1.6 -6.2
v 4.5 0 -6.2
v 4.5 0.1 -6.2
v 4.5 0.2 -6.2
v 4.5 1.4 -6.2
v 4.5 1.5 -6.2
v 4.5 1.6 -6.2
v 4.2 0.4 -6.3
v 4.2 0.7 -6.3
v 4.2 0.9 -6.3
v 4.2 1.2 -6.3
v 4.3 0.4 -6.3
v 4.3 0.7 -6.3
v 4.3 0.9 -6.3
v 4.3 1 -6.3
v 4.3 1.1 -6.3
v 4.3 1.2 -6.3
v 4.4 1 -6.3
v 4.4 1.1 -6.3
v 4.3 0.4 -6.5
v 4.3 0.7 -6.5
v 4.5 0.4 -6.5
v 4.5 0.7 -6.5
v 4.3 0.9 -6.7
v 4.3 1.2 -6.7
v 4.5 0.9 -6.7
v 4.5 1.2 -6.7
v 3.6 0.1 -6.2
v 3.6 0.4 -6.2
v 3.6 1.5 -6.2
v 3.6 1.6 -6.2
v 3.7 0.1 -6.2
v 3.7 0.4 -6.2
v 4.2 1.5 -6.2
v 4.3 1.5 -6.2
v 4.3 1.6 -6.2
v 3.6 0.4 -6.3
v 3.6 1.5 -6.3
v 3.7 0 -6.3
v 3.7 0.4 -6.3
v 4.2 0 -6.3
v 4.2 1.5 -6.3
v 4.3 1 -6.4
v 4.3 1.1 -6.4
v 4.4 1 -6.4
v 4.4 1.1 -6.4
v 4.2 0 -6.8
v 4.2 0.4 -6.8
v 4.3 0 -6.8
v 4.3 0.1 -6.8
v 4.3 0.4 -6.8
v 4.5 0 -6.8
v 4.5 0.1 -6.8
v 4.2 0.4 -6.9
v 4.2 1.5 -6.9
v 4.3 0.1 -6.9
v 4.3 0.4 -6.9
v 4.3 1.5 -6.9
v 4.3 1.6 -6.9
v 4.5 0.1 -6.9
v 4.5 1.6 -6.9
v 3.7 0 -6
v 4.3 0 -6
v 4.3 0 -6.2
v 4.5 0 -6.2
v 3.7 0 -6.3
v 4.2 0 -6.3
v 4.3 0 -6.3
v 4.2 0 -6.8
v 4.3 0 -6.8
v 4.5 0 -6.8
v 3.6 0.1 -6
v 3.7 0.1 -6
v 3.6 0.1 -6.2
v 3.7 0.1 -6.2
v 4.3 0.1 -6.8
v 4.5 0.1 -6.8
v 4.3 0.1 -6.9
v 4.5 0.1 -6.9
v 4.3 0.2 -6
v 4.5 0.2 -6
v 4.3 0.2 -6.2
v 4.5 0.2 -6.2
v 3.6 0.4 -6.2
v 3.7 0.4 -6.2
v 3.6 0.4 -6.3
v 3.7 0.4 -6.3
v 4.2 0.4 -6.8
v 4.3 0.4 -6.8
v 4.2 0.4 -6.9
v 4.3 0.4 -6.9
v 3.8 0.7 -6
v 4.3 0.7 -6
v 4.5 0.7 -6
v 3.8 0.7 -6.2
v 4.2 0.7 -6.2
v 4.3 0.7 -6.2
v 4.2 0.7 -6.3
v 4.3 0.7 -6.3
v 4.3 0.7 -6.5
v 4.5 0.7 -6.5
v 4.3 1 -6.3
v 4.4 1 -6.3
v 4.3 1 -6.4
v 4.4 1 -6.4
v 4 1.2 -6
v 4.3 1.2 -6
v 4.5 1.2 -6
v 4 1.2 -6.2
v 4.2 1.2 -6.2
v 4.3 1.2 -6.2
v 4.2 1.2 -6.3
v 4.3 1.2 -6.3
v 4.3 1.2 -6.7
v 4.5 1.2 -6.7
v 4 0.4 -6
v 4.3 0.4 -6
v 4.5 0.4 -6
v 4 0.4 -6.2
v 4.2 0.4 -6.2
v 4.3 0.4 -6.2
v 4.2 0.4 -6.3
v 4.3 0.4 -6.3
v 4.3 0.4 -6.5
v 4.5 0.4 -6.5
v 3.8 0.6 -6
v 4 0.6 -6
v 3.8 0.6 -6.2
v 4 0.6 -6.2
v 4 0.9 -6
v 4.3 0.9 -6
v 4.5 0.9 -6
v 4 0.9 -6.2
v 4.2 0.9 -6.2
v 4.3 0.9 -6.2
v 4.2 0.9 -6.3
v 4.3 0.9 -6.3
v 4.3 0.9 -6.7
v 4.5 0.9 -6.7
v 4.3 1.1 -6.3
v 4.4 1.1 -6.3
v 4.3 1.1 -6.4
v 4.4 1.1 -6.4
v 4.3 1.4 -6
v 4.5 1.4 -6
v 4.3 1.4 -6.2
v 4.5 1.4 -6.2
v 3.6 1.5 -6.2
v 4.2 1.5 -6.2
v 4.3 1.5 -6.2
v 3.6 1.5 -6.3
v 4.2 1.5 -6.3
v 4.2 1.5 -6.9
v 4.3 1.5 -6.9
v 3.6 1.6 -6
v 4.3 1.6 -6
v 3.6 1.6 -6.2
v 4.3 1.6 -6.2
v 4.5 1.6 -6.2
v 4.3 1.6 -6.9
v 4.5 1.6 -6.9

# faces
f 3/4/1 2/4/1 1/4/1
f 5/4/1 3/4/1 1/4/1
f 5/4/1 4/4/1 3/4/1
f 6/4/1 4/4/1 5/4/1
f 7/4/1 5/4/1 1/4/1
f 8/4/1 5/4/1 7/4/1
f 11/4/1 10/4/1 9/4/1
f 12/4/1 10/4/1 11/4/1
f 13/4/1 10/4/1 12/4/1
f 14/4/1 10/4/1 13/4/1
f 17/5/1 16/5/1 15/5/1
f 19/5/1 17/5/1 15/5/1
f 19/5/1 18/5/1 17/5/1
f 20/5/1 18/5/1 19/5/1
f 23/4/1 22/4/1 21/4/1
f 24/4/1 22/4/1 23/4/1
f 27/4/1 26/4/1 25/4/1
f 28/4/1 26/4/1 27/4/1
f 29/4/2 30/4/2 31/4/2
f 31/4/2 30/4/2 32/4/2
f 33/2/2 34/2/2 35/2/2
f 35/2/2 34/2/2 36/2/2
f 37/2/2 38/2/2 39/2/2
f 39/2/2 38/2/2 40/2/2
f 41/4/2 42/4/2 43/4/2
f 43/4/2 42/4/2 44/4/2
f 45/4/2 46/4/2 47/4/2
f 47/4/2 46/4/2 48/4/2
f 49/4/2 50/4/2 51/4/2
f 49/4/2 51/4/2 52/4/2
f 52/4/2 51/4/2 53/4/2
f 54/5/2 55/5/2 56/5/2
f 56/5/2 55/5/2 57/5/2
f 58/5/2 59/5/2 60/5/2
f 60/5/2 59/5/2 61/5/2
f 61/5/2 59/5/2 63/5/2
f 62/5/2 63/5/2 64/5/2
f 63/5/2 59/5/2 65/5/2
f 64/5/2 63/5/2 65/5/2
f 66/4/2 67/4/2 68/4/2
f 66/4/2 68/4/2 69/4/2
f 69/4/2 68/4/2 70/4/2
f 71/1/2 72/1/2 73/1/2
f 73/1/2 72/1/2 74/1/2
f 75/4/2 76/4/2 77/4/2
f 77/4/2 76/4/2 78/4/2
f 77/5/2 78/5/2 81/5/2
f 81/5/2 78/5/2 82/5/2
f 80/3/2 81/3/2 83/3/2
f 81/3/2 82/3/2 83/3/2
f 83/3/2 82/3/2 84/3/2
f 84/3/2 82/3/2 86/3/2
f 85/3/2 86/3/2 87/3/2
f 82/5/2 78/5/2 88/5/2
f 87/3/2 86/3/2 88/3/2
f 86/3/2 82/3/2 88/3/2
f 88/5/2 78/5/2 90/5/2
f 89/3/2 90/3/2 91/3/2
f 91/3/2 90/3/2 92/3/2
f 90/5/2 78/5/2 93/5/2
f 92/3/2 90/3/2 93/3/2
f 92/5/2 93/5/2 94/5/2
f 78/4/2 79/4/2 95/4/2
f 94/5/2 93/5/2 95/5/2
f 93/5/2 78/5/2 95/5/2
f 94/4/2 95/4/2 96/4/2
f 95/4/2 79/4/2 97/4/2
f 96/4/2 95/4/2 97/4/2
f 101/4/3 99/4/3 98/4/3
f 102/4/3 99/4/3 101/4/3
f 102/4/3 101/4/3 100/4/3
f 103/4/3 99/4/3 102/4/3
f 104/4/3 99/4/3 103/4/3
f 105/4/3 99/4/3 104/4/3
f 106/2/3 103/2/3 102/2/3
f 107/2/3 103/2/3 106/2/3
f 108/2/3 105/2/3 104/2/3
f 109/2/3 105/2/3 108/2/3
f 110/4/3 102/4/3 100/4/3
f 111/2/3 106/2/3 102/2/3
f 111/4/3 102/4/3 110/4/3
f 112/2/3 106/2/3 111/2/3
f 113/2/3 108/2/3 104/2/3
f 114/2/3 108/2/3 113/2/3
f 115/2/3 105/2/3 109/2/3
f 116/4/3 99/4/3 105/4/3
f 116/2/3 105/2/3 115/2/3
f 117/4/3 99/4/3 116/4/3
f 118/3/3 112/3/3 111/3/3
f 119/3/3 112/3/3 118/3/3
f 120/3/3 114/3/3 113/3/3
f 121/3/3 114/3/3 120/3/3
f 122/3/3 116/3/3 115/3/3
f 123/3/3 116/3/3 122/3/3
f 127/4/3 125/4/3 124/4/3
f 130/4/3 127/4/3 126/4/3
f 131/4/3 125/4/3 127/4/3
f 131/4/3 127/4/3 130/4/3
f 132/4/3 129/4/3 128/4/3
f 133/4/3 129/4/3 132/4/3
f 140/4/3 135/4/3 134/4/3
f 141/5/3 136/5/3 135/5/3
f 141/4/3 135/4/3 140/4/3
f 142/5/3 136/5/3 141/5/3
f 143/5/3 138/5/3 137/5/3
f 144/4/3 139/4/3 138/4/3
f 144/5/3 138/5/3 143/5/3
f 145/4/3 139/4/3 144/4/3
f 150/5/3 147/5/3 146/5/3
f 151/5/3 147/5/3 150/5/3
f 152/5/3 149/5/3 148/5/3
f 153/5/3 149/5/3 152/5/3
f 154/5/3 149/5/3 153/5/3
f 155/5/3 149/5/3 154/5/3
f 156/1/3 154/1/3 153/1/3
f 157/1/3 154/1/3 156/1/3
f 160/3/3 159/3/3 158/3/3
f 161/3/3 159/3/3 160/3/3
f 164/5/3 163/5/3 162/5/3
f 165/5/3 163/5/3 164/5/3
f 166/4/4 167/4/4 170/4/4
f 170/4/4 167/4/4 171/4/4
f 168/4/4 169/4/4 172/4/4
f 172/4/4 169/4/4 173/4/4
f 173/4/4 169/4/4 174/4/4
f 175/4/4 176/4/4 178/4/4
f 177/4/4 178/4/4 179/4/4
f 178/4/4 176/4/4 180/4/4
f 179/4/4 178/4/4 180/4/4
f 181/1/4 182/1/4 183/1/4
f 183/1/4 182/1/4 184/1/4
f 185/5/4 186/5/4 187/5/4
f 187/5/4 186/5/4 188/5/4
f 188/5/4 186/5/4 189/5/4
f 187/4/4 188/4/4 190/4/4
f 190/4/4 188/4/4 191/4/4
f 192/5/4 193/5/4 195/5/4
f 195/5/4 193/5/4 196/5/4
f 194/4/4 195/4/4 198/4/4
f 196/4/4 197/4/4 198/4/4
f 195/4/4 196/4/4 198/4/4
f 198/4/4 197/4/4 199/4/4
f 202/4/5 201/4/5 200/4/5
f 204/4/5 202/4/5 200/4/5
f 204/4/5 203/4/5 202/4/5
f 205/4/5 203/4/5 204/4/5
f 206/4/5 203/4/5 205/4/5
f 207/5/5 206/5/5 205/5/5
f 208/4/5 203/4/5 206/4/5
f 208/5/5 206/5/5 207/5/5
f 209/4/5 203/4/5 208/4/5
f 212/4/5 211/4/5 210/4/5
f 213/4/5 211/4/5 212/4/5
f 216/4/5 215/4/5 214/4/5
f 217/4/5 215/4/5 216/4/5
f 220/3/5 219/3/5 218/3/5
f 221/3/5 219/3/5 220/3/5
f 224/4/5 223/4/5 222/4/5
f 225/4/5 223/4/5 224/4/5
f 228/5/5 227/5/5 226/5/5
f 229/5/5 227/5/5 228/5/5
f 233/2/5 231/2/5 230/2/5
f 234/2/5 231/2/5 233/2/5
f 235/3/5 232/3/5 231/3/5
f 235/2/5 231/2/5 234/2/5
f 236/5/5 235/5/5 234/5/5
f 237/3/5 232/3/5 235/3/5
f 237/5/5 235/5/5 236/5/5
f 238/3/5 232/3/5 237/3/5
f 239/3/5 232/3/5 238/3/5
f 242/1/5 241/1/5 240/1/5
f 243/1/5 241/1/5 242/1/5
f 247/2/5 245/2/5 244/2/5
f 248/2/5 245/2/5 247/2/5
f 249/3/5 246/3/5 245/3/5
f 249/2/5 245/2/5 248/2/5
f 250/5/5 249/5/5 248/5/5
f 251/3/5 246/3/5 249/3/5
f 251/5/5 249/5/5 250/5/5
f 252/3/5 246/3/5 251/3/5
f 253/3/5 246/3/5 252/3/5
f 254/2/6 255/2/6 257/2/6
f 257/2/6 255/2/6 258/2/6
f 255/3/6 256/3/6 259/3/6
f 258/2/6 255/2/6 259/2/6
f 258/5/6 259/5/6 260/5/6
f 259/3/6 256/3/6 261/3/6
f 260/5/6 259/5/6 261/5/6
f 261/3/6 256/3/6 262/3/6
f 262/3/6 256/3/6 263/3/6
f 264/2/6 265/2/6 266/2/6
f 266/2/6 265/2/6 267/2/6
f 268/2/6 269/2/6 271/2/6
f 271/2/6 269/2/6 272/2/6
f 269/3/6 270/3/6 273/3/6
f 272/2/6 269/2/6 273/2/6
f 272/5/6 273/5/6 274/5/6
f 273/3/6 270/3/6 275/3/6
f 274/5/6 273/5/6 275/5/6
f 275/3/6 270/3/6 276/3/6
f 276/3/6 270/3/6 277/3/6
f 278/1/6 279/1/6 280/1/6
f 280/1/6 279/1/6 281/1/6
f 282/3/6 283/3/6 284/3/6
f 284/3/6 283/3/6 285/3/6
f 286/4/6 287/4/6 289/4/6
f 287/5/6 288/5/6 290/5/6
f 289/4/6 287/4/6 290/4/6
f 290/5/6 288/5/6 291/5/6
f 291/5/6 288/5/6 292/5/6
f 293/4/6 294/4/6 295/4/6
f 295/4/6 294/4/6 296/4/6
f 296/4/6 297/4/6 298/4/6
f 298/4/6 297/4/6 299/4/6
