<svg width="454" height="59" viewBox="0 0 454 59" fill="none" xmlns="http://www.w3.org/2000/svg">
<path d="M43 48C41.4 48 39.9 47.8 38.5 47.4C37.1 47.0667 35.8 46.4667 34.6 45.6C34.2 45.2 33.5667 44.6 32.7 43.8C31.9 43 31 42.1 30 41.1C29 40.0333 27.9667 38.9667 26.9 37.9C25.9 36.8333 24.9667 35.8667 24.1 35C23.2333 34.0667 22.5333 33.3 22 32.7C21.2 31.9 20.5 31.3 19.9 30.9C19.3667 30.4333 18.6 30 17.6 29.6L14 29V47H0.700001V5.2C0.700001 4.26667 0.766667 3.50001 0.900001 2.90001C1.1 2.30001 1.46667 1.83334 2 1.50001C2.6 1.16667 3.6 1.00001 5 1.00001C6.53333 1.00001 8.03333 1.00001 9.5 1.00001C11.0333 1.00001 12.5333 1.00001 14 1.00001C14 2.00001 14 3.26667 14 4.80001C14 6.33334 14 7.96667 14 9.7C14 11.4333 14 13.0667 14 14.6C14 16.1333 14 17.3667 14 18.3L17.7 17.8C18.3667 17.6 18.9333 17.3333 19.4 17C19.8667 16.6667 20.4 16.1667 21 15.5C22.0667 14.3667 23.3333 13.1 24.8 11.7C26.2667 10.2333 27.8 8.73334 29.4 7.2C31 5.66667 32.4333 4.3 33.7 3.10001C34.9667 2.10001 36.3333 1.43334 37.8 1.10001C39.2667 0.766673 41.0333 0.600006 43.1 0.600006C44.6333 0.600006 45.9333 0.666673 47 0.800007C48.0667 0.93334 49.1667 1.13334 50.3 1.40001C50.1667 1.46667 49.7333 1.86667 49 2.6C48.2667 3.33334 47.4333 4.13334 46.5 5.00001C45.6333 5.86668 44.9333 6.56667 44.4 7.10001C42.2 8.83334 39.9 10.6667 37.5 12.6C35.1 14.4667 32.7667 16.3667 30.5 18.3C28.2333 20.1667 26.2 21.9667 24.4 23.7L24.6 20.2C26.0667 21.3333 27.8 22.8 29.8 24.6C31.8 26.4 34 28.4333 36.4 30.7C38.8667 32.9 41.4 35.1667 44 37.5C46.6 39.8333 49.1667 42.1 51.7 44.3C51.4333 44.6333 50.9 45.1 50.1 45.7C49.3667 46.3 48.4 46.8333 47.2 47.3C46 47.7667 44.6 48 43 48Z" fill="black"/>
<path d="M78.6867 47.6C75.1534 47.6 72.0201 47.3667 69.2867 46.9C66.5534 46.3667 64.2201 45.4 62.2867 44C60.4201 42.5333 58.9867 40.4333 57.9867 37.7C56.9867 34.9667 56.4867 31.4333 56.4867 27.1C56.4867 22.7667 56.9867 19.2333 57.9867 16.5C58.9867 13.7667 60.4201 11.7 62.2867 10.3C64.2201 8.83334 66.5534 7.86667 69.2867 7.40001C72.0201 6.86667 75.1534 6.60001 78.6867 6.60001C82.2867 6.60001 85.4201 6.86667 88.0867 7.40001C90.8201 7.86667 93.1201 8.83334 94.9867 10.3C96.8534 11.7 98.2534 13.7667 99.1867 16.5C100.187 19.2333 100.687 22.7667 100.687 27.1C100.687 31.5 100.187 35.0667 99.1867 37.8C98.2534 40.4667 96.8534 42.5333 94.9867 44C93.1201 45.4 90.8201 46.3667 88.0867 46.9C85.3534 47.3667 82.2201 47.6 78.6867 47.6ZM78.6867 41.5C80.8201 41.5 82.5867 41.1333 83.9867 40.4C85.4534 39.6667 86.5534 38.2667 87.2867 36.2C88.0201 34.1333 88.3867 31.1 88.3867 27.1C88.3867 23.1 88.0201 20.0667 87.2867 18C86.5534 15.9333 85.4534 14.5333 83.9867 13.8C82.5867 13.0667 80.8201 12.7 78.6867 12.7C76.6201 12.7 74.8534 13.0667 73.3867 13.8C71.9201 14.5333 70.7867 15.9333 69.9867 18C69.1867 20.0667 68.7867 23.1 68.7867 27.1C68.7867 31.1 69.1867 34.1333 69.9867 36.2C70.7867 38.2667 71.9201 39.6667 73.3867 40.4C74.8534 41.1333 76.6201 41.5 78.6867 41.5Z" fill="black"/>
<path d="M113.952 47C112.085 47 110.852 46.7333 110.252 46.2C109.652 45.6 109.352 44.3333 109.352 42.4V9.80001C110.218 9.46667 111.352 9.16667 112.752 8.90001C114.152 8.56667 115.718 8.26667 117.452 8.00001C119.185 7.66667 121.018 7.40001 122.952 7.2C124.952 7.00001 126.918 6.90001 128.852 6.90001C131.385 6.90001 133.552 7.10001 135.352 7.50001C137.218 7.90001 138.785 8.63334 140.052 9.7C141.385 10.7 142.518 12.2 143.452 14.2H141.552C142.152 12.6667 142.985 11.4333 144.052 10.5C145.118 9.50001 146.385 8.76667 147.852 8.30001C149.318 7.76667 150.785 7.40001 152.252 7.2C153.718 7.00001 155.052 6.90001 156.252 6.90001C160.585 6.90001 163.985 7.30001 166.452 8.10001C168.918 8.83334 170.685 10.1667 171.752 12.1C172.885 13.9667 173.452 16.6 173.452 20V42.8C173.452 44.6 173.118 45.7667 172.452 46.3C171.852 46.7667 170.652 47 168.852 47H161.252C161.252 42.4 161.252 37.8333 161.252 33.3C161.252 28.7667 161.252 24.2 161.252 19.6C161.252 16.8667 160.685 15.0667 159.552 14.2C158.418 13.2667 156.718 12.8 154.452 12.8C153.385 12.8 152.318 12.9667 151.252 13.3C150.185 13.5667 149.285 13.9667 148.552 14.5C147.885 15.0333 147.552 15.6667 147.552 16.4V47H135.352V18C135.352 16.3333 134.718 15.1 133.452 14.3C132.185 13.4333 130.518 13 128.452 13C127.185 13 126.052 13.1 125.052 13.3C124.052 13.4333 123.218 13.7 122.552 14.1C121.952 14.4333 121.618 14.9 121.552 15.5V47H113.952Z" fill="black"/>
<path d="M203.589 47.6C200.056 47.6 196.922 47.3667 194.189 46.9C191.456 46.3667 189.122 45.4 187.189 44C185.322 42.5333 183.889 40.4333 182.889 37.7C181.889 34.9667 181.389 31.4333 181.389 27.1C181.389 22.7667 181.889 19.2333 182.889 16.5C183.889 13.7667 185.322 11.7 187.189 10.3C189.122 8.83334 191.456 7.86667 194.189 7.40001C196.922 6.86667 200.056 6.60001 203.589 6.60001C207.189 6.60001 210.322 6.86667 212.989 7.40001C215.722 7.86667 218.022 8.83334 219.889 10.3C221.756 11.7 223.156 13.7667 224.089 16.5C225.089 19.2333 225.589 22.7667 225.589 27.1C225.589 31.5 225.089 35.0667 224.089 37.8C223.156 40.4667 221.756 42.5333 219.889 44C218.022 45.4 215.722 46.3667 212.989 46.9C210.256 47.3667 207.122 47.6 203.589 47.6ZM203.589 41.5C205.722 41.5 207.489 41.1333 208.889 40.4C210.356 39.6667 211.456 38.2667 212.189 36.2C212.922 34.1333 213.289 31.1 213.289 27.1C213.289 23.1 212.922 20.0667 212.189 18C211.456 15.9333 210.356 14.5333 208.889 13.8C207.489 13.0667 205.722 12.7 203.589 12.7C201.522 12.7 199.756 13.0667 198.289 13.8C196.822 14.5333 195.689 15.9333 194.889 18C194.089 20.0667 193.689 23.1 193.689 27.1C193.689 31.1 194.089 34.1333 194.889 36.2C195.689 38.2667 196.822 39.6667 198.289 40.4C199.756 41.1333 201.522 41.5 203.589 41.5Z" fill="black"/>
<path d="M252.954 58.8C250.621 58.8 248.421 58.7333 246.354 58.6C244.287 58.4667 242.454 58.2 240.854 57.8C239.254 57.4667 237.987 56.9333 237.054 56.2C236.121 55.5333 235.654 54.6333 235.654 53.5C235.654 53.1667 235.654 52.7 235.654 52.1C235.654 51.5667 235.654 51.1667 235.654 50.9C236.454 51.3 237.721 51.6667 239.454 52C241.254 52.4 243.187 52.7 245.254 52.9C247.321 53.1667 249.154 53.3 250.754 53.3C254.621 53.3 257.554 52.7667 259.554 51.7C261.554 50.6333 262.887 48.9 263.554 46.5C264.221 44.0333 264.387 40.8667 264.054 37L265.754 37.2C265.021 39.2667 263.987 40.9 262.654 42.1C261.387 43.2333 259.721 44.0667 257.654 44.6C255.587 45.0667 253.087 45.3 250.154 45.3C246.087 45.3 242.787 44.8 240.254 43.8C237.721 42.8 235.854 41 234.654 38.4C233.454 35.7333 232.854 31.9 232.854 26.9C232.854 22.7 233.254 19.3 234.054 16.7C234.921 14.0333 236.254 12 238.054 10.6C239.921 9.13334 242.354 8.16668 245.354 7.70001C248.421 7.16667 252.221 6.90001 256.754 6.90001C258.221 6.90001 259.954 6.96667 261.954 7.10001C263.954 7.16667 265.954 7.26667 267.954 7.40001C270.021 7.53334 271.821 7.66667 273.354 7.80001C274.954 7.93334 276.021 8.06667 276.554 8.2C276.487 8.4 276.421 8.9 276.354 9.7C276.354 10.5 276.354 11.4333 276.354 12.5C276.354 13.5 276.354 14.5 276.354 15.5L276.254 39.3C276.254 44.4333 275.454 48.4 273.854 51.2C272.254 54.0667 269.754 56.0333 266.354 57.1C262.954 58.2333 258.487 58.8 252.954 58.8ZM254.054 38.4C255.921 38.4 257.587 38.1667 259.054 37.7C260.587 37.1667 261.821 36.3 262.754 35.1C263.687 33.9 264.187 32.1667 264.254 29.9V14C263.721 13.9333 262.554 13.8333 260.754 13.7C259.021 13.5 257.121 13.4 255.054 13.4C252.587 13.4 250.621 13.7333 249.154 14.4C247.754 15.0667 246.721 16.3 246.054 18.1C245.454 19.9 245.154 22.5 245.154 25.9C245.154 29.3 245.454 31.9 246.054 33.7C246.721 35.5 247.687 36.7333 248.954 37.4C250.287 38.0667 251.987 38.4 254.054 38.4Z" fill="black"/>
<path d="M306.714 47.6C303.181 47.6 300.047 47.3667 297.314 46.9C294.581 46.3667 292.247 45.4 290.314 44C288.447 42.5333 287.014 40.4333 286.014 37.7C285.014 34.9667 284.514 31.4333 284.514 27.1C284.514 22.7667 285.014 19.2333 286.014 16.5C287.014 13.7667 288.447 11.7 290.314 10.3C292.247 8.83334 294.581 7.86667 297.314 7.40001C300.047 6.86667 303.181 6.60001 306.714 6.60001C310.314 6.60001 313.447 6.86667 316.114 7.40001C318.847 7.86667 321.147 8.83334 323.014 10.3C324.881 11.7 326.281 13.7667 327.214 16.5C328.214 19.2333 328.714 22.7667 328.714 27.1C328.714 31.5 328.214 35.0667 327.214 37.8C326.281 40.4667 324.881 42.5333 323.014 44C321.147 45.4 318.847 46.3667 316.114 46.9C313.381 47.3667 310.247 47.6 306.714 47.6ZM306.714 41.5C308.847 41.5 310.614 41.1333 312.014 40.4C313.481 39.6667 314.581 38.2667 315.314 36.2C316.047 34.1333 316.414 31.1 316.414 27.1C316.414 23.1 316.047 20.0667 315.314 18C314.581 15.9333 313.481 14.5333 312.014 13.8C310.614 13.0667 308.847 12.7 306.714 12.7C304.647 12.7 302.881 13.0667 301.414 13.8C299.947 14.5333 298.814 15.9333 298.014 18C297.214 20.0667 296.814 23.1 296.814 27.1C296.814 31.1 297.214 34.1333 298.014 36.2C298.814 38.2667 299.947 39.6667 301.414 40.4C302.881 41.1333 304.647 41.5 306.714 41.5Z" fill="black"/>
<path d="M341.979 47C340.112 47 338.879 46.7333 338.279 46.2C337.679 45.6 337.379 44.3333 337.379 42.4V9.80001C338.246 9.46667 339.379 9.16667 340.779 8.90001C342.179 8.56667 343.746 8.26667 345.479 8.00001C347.212 7.66667 349.046 7.40001 350.979 7.2C352.979 7.00001 354.946 6.90001 356.879 6.90001C359.412 6.90001 361.579 7.10001 363.379 7.50001C365.246 7.90001 366.812 8.63334 368.079 9.7C369.412 10.7 370.546 12.2 371.479 14.2H369.579C370.179 12.6667 371.012 11.4333 372.079 10.5C373.146 9.50001 374.412 8.76667 375.879 8.30001C377.346 7.76667 378.812 7.40001 380.279 7.2C381.746 7.00001 383.079 6.90001 384.279 6.90001C388.612 6.90001 392.012 7.30001 394.479 8.10001C396.946 8.83334 398.712 10.1667 399.779 12.1C400.912 13.9667 401.479 16.6 401.479 20V42.8C401.479 44.6 401.146 45.7667 400.479 46.3C399.879 46.7667 398.679 47 396.879 47H389.279C389.279 42.4 389.279 37.8333 389.279 33.3C389.279 28.7667 389.279 24.2 389.279 19.6C389.279 16.8667 388.712 15.0667 387.579 14.2C386.446 13.2667 384.746 12.8 382.479 12.8C381.412 12.8 380.346 12.9667 379.279 13.3C378.212 13.5667 377.312 13.9667 376.579 14.5C375.912 15.0333 375.579 15.6667 375.579 16.4V47H363.379V18C363.379 16.3333 362.746 15.1 361.479 14.3C360.212 13.4333 358.546 13 356.479 13C355.212 13 354.079 13.1 353.079 13.3C352.079 13.4333 351.246 13.7 350.579 14.1C349.979 14.4333 349.646 14.9 349.579 15.5V47H341.979Z" fill="black"/>
<path d="M431.616 47.6C428.083 47.6 424.95 47.3667 422.216 46.9C419.483 46.3667 417.15 45.4 415.216 44C413.35 42.5333 411.916 40.4333 410.916 37.7C409.916 34.9667 409.416 31.4333 409.416 27.1C409.416 22.7667 409.916 19.2333 410.916 16.5C411.916 13.7667 413.35 11.7 415.216 10.3C417.15 8.83334 419.483 7.86667 422.216 7.40001C424.95 6.86667 428.083 6.60001 431.616 6.60001C435.216 6.60001 438.35 6.86667 441.016 7.40001C443.75 7.86667 446.05 8.83334 447.916 10.3C449.783 11.7 451.183 13.7667 452.116 16.5C453.116 19.2333 453.616 22.7667 453.616 27.1C453.616 31.5 453.116 35.0667 452.116 37.8C451.183 40.4667 449.783 42.5333 447.916 44C446.05 45.4 443.75 46.3667 441.016 46.9C438.283 47.3667 435.15 47.6 431.616 47.6ZM431.616 41.5C433.75 41.5 435.516 41.1333 436.916 40.4C438.383 39.6667 439.483 38.2667 440.216 36.2C440.95 34.1333 441.316 31.1 441.316 27.1C441.316 23.1 440.95 20.0667 440.216 18C439.483 15.9333 438.383 14.5333 436.916 13.8C435.516 13.0667 433.75 12.7 431.616 12.7C429.55 12.7 427.783 13.0667 426.316 13.8C424.85 14.5333 423.716 15.9333 422.916 18C422.116 20.0667 421.716 23.1 421.716 27.1C421.716 31.1 422.116 34.1333 422.916 36.2C423.716 38.2667 424.85 39.6667 426.316 40.4C427.783 41.1333 429.55 41.5 431.616 41.5Z" fill="black"/>
</svg>
