<svg width="480" height="93" viewBox="0 0 480 93" fill="none" xmlns="http://www.w3.org/2000/svg">
<g filter="url(#filter0_dddddd_24_43)">
<path d="M46 50C44.4 50 42.9 49.8 41.5 49.4C40.1 49.0667 38.8 48.4667 37.6 47.6C37.2 47.2 36.5667 46.6 35.7 45.8C34.9 45 34 44.1 33 43.1C32 42.0333 30.9667 40.9667 29.9 39.9C28.9 38.8333 27.9667 37.8667 27.1 37C26.2333 36.0667 25.5333 35.3 25 34.7C24.2 33.9 23.5 33.3 22.9 32.9C22.3667 32.4333 21.6 32 20.6 31.6L17 31V49H3.7V7.2C3.7 6.26667 3.76667 5.50001 3.9 4.90001C4.1 4.30001 4.46667 3.83334 5 3.50001C5.6 3.16667 6.6 3.00001 8 3.00001C9.53333 3.00001 11.0333 3.00001 12.5 3.00001C14.0333 3.00001 15.5333 3.00001 17 3.00001C17 4.00001 17 5.26667 17 6.80001C17 8.33334 17 9.96667 17 11.7C17 13.4333 17 15.0667 17 16.6C17 18.1333 17 19.3667 17 20.3L20.7 19.8C21.3667 19.6 21.9333 19.3333 22.4 19C22.8667 18.6667 23.4 18.1667 24 17.5C25.0667 16.3667 26.3333 15.1 27.8 13.7C29.2667 12.2333 30.8 10.7333 32.4 9.2C34 7.66667 35.4333 6.3 36.7 5.10001C37.9667 4.10001 39.3333 3.43334 40.8 3.10001C42.2667 2.76667 44.0333 2.60001 46.1 2.60001C47.6333 2.60001 48.9333 2.66667 50 2.80001C51.0667 2.93334 52.1667 3.13334 53.3 3.40001C53.1667 3.46667 52.7333 3.86667 52 4.6C51.2667 5.33334 50.4333 6.13334 49.5 7.00001C48.6333 7.86668 47.9333 8.56667 47.4 9.10001C45.2 10.8333 42.9 12.6667 40.5 14.6C38.1 16.4667 35.7667 18.3667 33.5 20.3C31.2333 22.1667 29.2 23.9667 27.4 25.7L27.6 22.2C29.0667 23.3333 30.8 24.8 32.8 26.6C34.8 28.4 37 30.4333 39.4 32.7C41.8667 34.9 44.4 37.1667 47 39.5C49.6 41.8333 52.1667 44.1 54.7 46.3C54.4333 46.6333 53.9 47.1 53.1 47.7C52.3667 48.3 51.4 48.8333 50.2 49.3C49 49.7667 47.6 50 46 50Z" fill="black"/>
<path d="M81.6867 49.6C78.1534 49.6 75.0201 49.3667 72.2867 48.9C69.5534 48.3667 67.2201 47.4 65.2867 46C63.4201 44.5333 61.9867 42.4333 60.9867 39.7C59.9867 36.9667 59.4867 33.4333 59.4867 29.1C59.4867 24.7667 59.9867 21.2333 60.9867 18.5C61.9867 15.7667 63.4201 13.7 65.2867 12.3C67.2201 10.8333 69.5534 9.86667 72.2867 9.40001C75.0201 8.86667 78.1534 8.60001 81.6867 8.60001C85.2867 8.60001 88.4201 8.86667 91.0867 9.40001C93.8201 9.86667 96.1201 10.8333 97.9867 12.3C99.8534 13.7 101.253 15.7667 102.187 18.5C103.187 21.2333 103.687 24.7667 103.687 29.1C103.687 33.5 103.187 37.0667 102.187 39.8C101.253 42.4667 99.8534 44.5333 97.9867 46C96.1201 47.4 93.8201 48.3667 91.0867 48.9C88.3534 49.3667 85.2201 49.6 81.6867 49.6ZM81.6867 43.5C83.8201 43.5 85.5867 43.1333 86.9867 42.4C88.4534 41.6667 89.5534 40.2667 90.2867 38.2C91.0201 36.1333 91.3867 33.1 91.3867 29.1C91.3867 25.1 91.0201 22.0667 90.2867 20C89.5534 17.9333 88.4534 16.5333 86.9867 15.8C85.5867 15.0667 83.8201 14.7 81.6867 14.7C79.6201 14.7 77.8534 15.0667 76.3867 15.8C74.9201 16.5333 73.7867 17.9333 72.9867 20C72.1867 22.0667 71.7867 25.1 71.7867 29.1C71.7867 33.1 72.1867 36.1333 72.9867 38.2C73.7867 40.2667 74.9201 41.6667 76.3867 42.4C77.8534 43.1333 79.6201 43.5 81.6867 43.5Z" fill="black"/>
<path d="M116.952 49C115.085 49 113.852 48.7333 113.252 48.2C112.652 47.6 112.352 46.3333 112.352 44.4V11.8C113.218 11.4667 114.352 11.1667 115.752 10.9C117.152 10.5667 118.718 10.2667 120.452 10C122.185 9.66667 124.018 9.40001 125.952 9.2C127.952 9.00001 129.918 8.90001 131.852 8.90001C134.385 8.90001 136.552 9.10001 138.352 9.50001C140.218 9.90001 141.785 10.6333 143.052 11.7C144.385 12.7 145.518 14.2 146.452 16.2H144.552C145.152 14.6667 145.985 13.4333 147.052 12.5C148.118 11.5 149.385 10.7667 150.852 10.3C152.318 9.76667 153.785 9.40001 155.252 9.2C156.718 9.00001 158.052 8.90001 159.252 8.90001C163.585 8.90001 166.985 9.30001 169.452 10.1C171.918 10.8333 173.685 12.1667 174.752 14.1C175.885 15.9667 176.452 18.6 176.452 22V44.8C176.452 46.6 176.118 47.7667 175.452 48.3C174.852 48.7667 173.652 49 171.852 49H164.252C164.252 44.4 164.252 39.8333 164.252 35.3C164.252 30.7667 164.252 26.2 164.252 21.6C164.252 18.8667 163.685 17.0667 162.552 16.2C161.418 15.2667 159.718 14.8 157.452 14.8C156.385 14.8 155.318 14.9667 154.252 15.3C153.185 15.5667 152.285 15.9667 151.552 16.5C150.885 17.0333 150.552 17.6667 150.552 18.4V49H138.352V20C138.352 18.3333 137.718 17.1 136.452 16.3C135.185 15.4333 133.518 15 131.452 15C130.185 15 129.052 15.1 128.052 15.3C127.052 15.4333 126.218 15.7 125.552 16.1C124.952 16.4333 124.618 16.9 124.552 17.5V49H116.952Z" fill="black"/>
<path d="M206.589 49.6C203.056 49.6 199.922 49.3667 197.189 48.9C194.456 48.3667 192.122 47.4 190.189 46C188.322 44.5333 186.889 42.4333 185.889 39.7C184.889 36.9667 184.389 33.4333 184.389 29.1C184.389 24.7667 184.889 21.2333 185.889 18.5C186.889 15.7667 188.322 13.7 190.189 12.3C192.122 10.8333 194.456 9.86667 197.189 9.40001C199.922 8.86667 203.056 8.60001 206.589 8.60001C210.189 8.60001 213.322 8.86667 215.989 9.40001C218.722 9.86667 221.022 10.8333 222.889 12.3C224.756 13.7 226.156 15.7667 227.089 18.5C228.089 21.2333 228.589 24.7667 228.589 29.1C228.589 33.5 228.089 37.0667 227.089 39.8C226.156 42.4667 224.756 44.5333 222.889 46C221.022 47.4 218.722 48.3667 215.989 48.9C213.256 49.3667 210.122 49.6 206.589 49.6ZM206.589 43.5C208.722 43.5 210.489 43.1333 211.889 42.4C213.356 41.6667 214.456 40.2667 215.189 38.2C215.922 36.1333 216.289 33.1 216.289 29.1C216.289 25.1 215.922 22.0667 215.189 20C214.456 17.9333 213.356 16.5333 211.889 15.8C210.489 15.0667 208.722 14.7 206.589 14.7C204.522 14.7 202.756 15.0667 201.289 15.8C199.822 16.5333 198.689 17.9333 197.889 20C197.089 22.0667 196.689 25.1 196.689 29.1C196.689 33.1 197.089 36.1333 197.889 38.2C198.689 40.2667 199.822 41.6667 201.289 42.4C202.756 43.1333 204.522 43.5 206.589 43.5Z" fill="black"/>
<path d="M255.954 60.8C253.621 60.8 251.421 60.7333 249.354 60.6C247.287 60.4667 245.454 60.2 243.854 59.8C242.254 59.4667 240.987 58.9333 240.054 58.2C239.121 57.5333 238.654 56.6333 238.654 55.5C238.654 55.1667 238.654 54.7 238.654 54.1C238.654 53.5667 238.654 53.1667 238.654 52.9C239.454 53.3 240.721 53.6667 242.454 54C244.254 54.4 246.187 54.7 248.254 54.9C250.321 55.1667 252.154 55.3 253.754 55.3C257.621 55.3 260.554 54.7667 262.554 53.7C264.554 52.6333 265.887 50.9 266.554 48.5C267.221 46.0333 267.387 42.8667 267.054 39L268.754 39.2C268.021 41.2667 266.987 42.9 265.654 44.1C264.387 45.2333 262.721 46.0667 260.654 46.6C258.587 47.0667 256.087 47.3 253.154 47.3C249.087 47.3 245.787 46.8 243.254 45.8C240.721 44.8 238.854 43 237.654 40.4C236.454 37.7333 235.854 33.9 235.854 28.9C235.854 24.7 236.254 21.3 237.054 18.7C237.921 16.0333 239.254 14 241.054 12.6C242.921 11.1333 245.354 10.1667 248.354 9.70001C251.421 9.16667 255.221 8.90001 259.754 8.90001C261.221 8.90001 262.954 8.96667 264.954 9.10001C266.954 9.16667 268.954 9.26667 270.954 9.40001C273.021 9.53334 274.821 9.66667 276.354 9.80001C277.954 9.93334 279.021 10.0667 279.554 10.2C279.487 10.4 279.421 10.9 279.354 11.7C279.354 12.5 279.354 13.4333 279.354 14.5C279.354 15.5 279.354 16.5 279.354 17.5L279.254 41.3C279.254 46.4333 278.454 50.4 276.854 53.2C275.254 56.0667 272.754 58.0333 269.354 59.1C265.954 60.2333 261.487 60.8 255.954 60.8ZM257.054 40.4C258.921 40.4 260.587 40.1667 262.054 39.7C263.587 39.1667 264.821 38.3 265.754 37.1C266.687 35.9 267.187 34.1667 267.254 31.9V16C266.721 15.9333 265.554 15.8333 263.754 15.7C262.021 15.5 260.121 15.4 258.054 15.4C255.587 15.4 253.621 15.7333 252.154 16.4C250.754 17.0667 249.721 18.3 249.054 20.1C248.454 21.9 248.154 24.5 248.154 27.9C248.154 31.3 248.454 33.9 249.054 35.7C249.721 37.5 250.687 38.7333 251.954 39.4C253.287 40.0667 254.987 40.4 257.054 40.4Z" fill="black"/>
<path d="M309.714 49.6C306.181 49.6 303.047 49.3667 300.314 48.9C297.581 48.3667 295.247 47.4 293.314 46C291.447 44.5333 290.014 42.4333 289.014 39.7C288.014 36.9667 287.514 33.4333 287.514 29.1C287.514 24.7667 288.014 21.2333 289.014 18.5C290.014 15.7667 291.447 13.7 293.314 12.3C295.247 10.8333 297.581 9.86667 300.314 9.40001C303.047 8.86667 306.181 8.60001 309.714 8.60001C313.314 8.60001 316.447 8.86667 319.114 9.40001C321.847 9.86667 324.147 10.8333 326.014 12.3C327.881 13.7 329.281 15.7667 330.214 18.5C331.214 21.2333 331.714 24.7667 331.714 29.1C331.714 33.5 331.214 37.0667 330.214 39.8C329.281 42.4667 327.881 44.5333 326.014 46C324.147 47.4 321.847 48.3667 319.114 48.9C316.381 49.3667 313.247 49.6 309.714 49.6ZM309.714 43.5C311.847 43.5 313.614 43.1333 315.014 42.4C316.481 41.6667 317.581 40.2667 318.314 38.2C319.047 36.1333 319.414 33.1 319.414 29.1C319.414 25.1 319.047 22.0667 318.314 20C317.581 17.9333 316.481 16.5333 315.014 15.8C313.614 15.0667 311.847 14.7 309.714 14.7C307.647 14.7 305.881 15.0667 304.414 15.8C302.947 16.5333 301.814 17.9333 301.014 20C300.214 22.0667 299.814 25.1 299.814 29.1C299.814 33.1 300.214 36.1333 301.014 38.2C301.814 40.2667 302.947 41.6667 304.414 42.4C305.881 43.1333 307.647 43.5 309.714 43.5Z" fill="black"/>
<path d="M344.979 49C343.112 49 341.879 48.7333 341.279 48.2C340.679 47.6 340.379 46.3333 340.379 44.4V11.8C341.246 11.4667 342.379 11.1667 343.779 10.9C345.179 10.5667 346.746 10.2667 348.479 10C350.212 9.66667 352.046 9.40001 353.979 9.2C355.979 9.00001 357.946 8.90001 359.879 8.90001C362.412 8.90001 364.579 9.10001 366.379 9.50001C368.246 9.90001 369.812 10.6333 371.079 11.7C372.412 12.7 373.546 14.2 374.479 16.2H372.579C373.179 14.6667 374.012 13.4333 375.079 12.5C376.146 11.5 377.412 10.7667 378.879 10.3C380.346 9.76667 381.812 9.40001 383.279 9.2C384.746 9.00001 386.079 8.90001 387.279 8.90001C391.612 8.90001 395.012 9.30001 397.479 10.1C399.946 10.8333 401.712 12.1667 402.779 14.1C403.912 15.9667 404.479 18.6 404.479 22V44.8C404.479 46.6 404.146 47.7667 403.479 48.3C402.879 48.7667 401.679 49 399.879 49H392.279C392.279 44.4 392.279 39.8333 392.279 35.3C392.279 30.7667 392.279 26.2 392.279 21.6C392.279 18.8667 391.712 17.0667 390.579 16.2C389.446 15.2667 387.746 14.8 385.479 14.8C384.412 14.8 383.346 14.9667 382.279 15.3C381.212 15.5667 380.312 15.9667 379.579 16.5C378.912 17.0333 378.579 17.6667 378.579 18.4V49H366.379V20C366.379 18.3333 365.746 17.1 364.479 16.3C363.212 15.4333 361.546 15 359.479 15C358.212 15 357.079 15.1 356.079 15.3C355.079 15.4333 354.246 15.7 353.579 16.1C352.979 16.4333 352.646 16.9 352.579 17.5V49H344.979Z" fill="black"/>
<path d="M434.616 49.6C431.083 49.6 427.95 49.3667 425.216 48.9C422.483 48.3667 420.15 47.4 418.216 46C416.35 44.5333 414.916 42.4333 413.916 39.7C412.916 36.9667 412.416 33.4333 412.416 29.1C412.416 24.7667 412.916 21.2333 413.916 18.5C414.916 15.7667 416.35 13.7 418.216 12.3C420.15 10.8333 422.483 9.86667 425.216 9.40001C427.95 8.86667 431.083 8.60001 434.616 8.60001C438.216 8.60001 441.35 8.86667 444.016 9.40001C446.75 9.86667 449.05 10.8333 450.916 12.3C452.783 13.7 454.183 15.7667 455.116 18.5C456.116 21.2333 456.616 24.7667 456.616 29.1C456.616 33.5 456.116 37.0667 455.116 39.8C454.183 42.4667 452.783 44.5333 450.916 46C449.05 47.4 446.75 48.3667 444.016 48.9C441.283 49.3667 438.15 49.6 434.616 49.6ZM434.616 43.5C436.75 43.5 438.516 43.1333 439.916 42.4C441.383 41.6667 442.483 40.2667 443.216 38.2C443.95 36.1333 444.316 33.1 444.316 29.1C444.316 25.1 443.95 22.0667 443.216 20C442.483 17.9333 441.383 16.5333 439.916 15.8C438.516 15.0667 436.75 14.7 434.616 14.7C432.55 14.7 430.783 15.0667 429.316 15.8C427.85 16.5333 426.716 17.9333 425.916 20C425.116 22.0667 424.716 25.1 424.716 29.1C424.716 33.1 425.116 36.1333 425.916 38.2C426.716 40.2667 427.85 41.6667 429.316 42.4C430.783 43.1333 432.55 43.5 434.616 43.5Z" fill="black"/>
</g>
<defs>
<filter id="filter0_dddddd_24_43" x="0.700001" y="0.600006" width="478.916" height="92.2" filterUnits="userSpaceOnUse" color-interpolation-filters="sRGB">
<feFlood flood-opacity="0" result="BackgroundImageFix"/>
<feColorMatrix in="SourceAlpha" type="matrix" values="0 0 0 0 0 0 0 0 0 0 0 0 0 0 0 0 0 0 127 0" result="hardAlpha"/>
<feOffset/>
<feColorMatrix type="matrix" values="0 0 0 0 0 0 0 0 0 0 0 0 0 0 0 0 0 0 0.59 0"/>
<feBlend mode="normal" in2="BackgroundImageFix" result="effect1_dropShadow_24_43"/>
<feColorMatrix in="SourceAlpha" type="matrix" values="0 0 0 0 0 0 0 0 0 0 0 0 0 0 0 0 0 0 127 0" result="hardAlpha"/>
<feOffset dx="1" dy="1"/>
<feGaussianBlur stdDeviation="1.5"/>
<feColorMatrix type="matrix" values="0 0 0 0 0 0 0 0 0 0 0 0 0 0 0 0 0 0 0.58 0"/>
<feBlend mode="normal" in2="effect1_dropShadow_24_43" result="effect2_dropShadow_24_43"/>
<feColorMatrix in="SourceAlpha" type="matrix" values="0 0 0 0 0 0 0 0 0 0 0 0 0 0 0 0 0 0 127 0" result="hardAlpha"/>
<feOffset dx="2" dy="4"/>
<feGaussianBlur stdDeviation="2.5"/>
<feColorMatrix type="matrix" values="0 0 0 0 0 0 0 0 0 0 0 0 0 0 0 0 0 0 0.5 0"/>
<feBlend mode="normal" in2="effect2_dropShadow_24_43" result="effect3_dropShadow_24_43"/>
<feColorMatrix in="SourceAlpha" type="matrix" values="0 0 0 0 0 0 0 0 0 0 0 0 0 0 0 0 0 0 127 0" result="hardAlpha"/>
<feOffset dx="6" dy="9"/>
<feGaussianBlur stdDeviation="3"/>
<feColorMatrix type="matrix" values="0 0 0 0 0 0 0 0 0 0 0 0 0 0 0 0 0 0 0.29 0"/>
<feBlend mode="normal" in2="effect3_dropShadow_24_43" result="effect4_dropShadow_24_43"/>
<feColorMatrix in="SourceAlpha" type="matrix" values="0 0 0 0 0 0 0 0 0 0 0 0 0 0 0 0 0 0 127 0" result="hardAlpha"/>
<feOffset dx="10" dy="16"/>
<feGaussianBlur stdDeviation="3.5"/>
<feColorMatrix type="matrix" values="0 0 0 0 0 0 0 0 0 0 0 0 0 0 0 0 0 0 0.09 0"/>
<feBlend mode="normal" in2="effect4_dropShadow_24_43" result="effect5_dropShadow_24_43"/>
<feColorMatrix in="SourceAlpha" type="matrix" values="0 0 0 0 0 0 0 0 0 0 0 0 0 0 0 0 0 0 127 0" result="hardAlpha"/>
<feOffset dx="15" dy="24"/>
<feGaussianBlur stdDeviation="4"/>
<feColorMatrix type="matrix" values="0 0 0 0 0 0 0 0 0 0 0 0 0 0 0 0 0 0 0.01 0"/>
<feBlend mode="normal" in2="effect5_dropShadow_24_43" result="effect6_dropShadow_24_43"/>
<feBlend mode="normal" in="SourceGraphic" in2="effect6_dropShadow_24_43" result="shape"/>
</filter>
</defs>
</svg>
